<svg width="22" height="17" viewBox="0 0 22 17" fill="none" xmlns="http://www.w3.org/2000/svg">
<path d="M21.3575 8L16.1075 0.83C16.0401 0.730296 15.9498 0.648263 15.844 0.590827C15.7383 0.533392 15.6203 0.502239 15.5 0.5H1.25C1.05109 0.5 0.860322 0.579018 0.71967 0.71967C0.579018 0.860322 0.5 1.05109 0.5 1.25V14C0.5 14.1989 0.579018 14.3897 0.71967 14.5303C0.860322 14.671 1.05109 14.75 1.25 14.75H2.855C3.02771 15.3855 3.40475 15.9466 3.92795 16.3465C4.45114 16.7465 5.09142 16.9632 5.75 16.9632C6.40858 16.9632 7.04886 16.7465 7.57205 16.3465C8.09525 15.9466 8.47229 15.3855 8.645 14.75H13.355C13.5277 15.3855 13.9048 15.9466 14.4279 16.3465C14.9511 16.7465 15.5914 16.9632 16.25 16.9632C16.9086 16.9632 17.5489 16.7465 18.0721 16.3465C18.5952 15.9466 18.9723 15.3855 19.145 14.75H20.75C20.9489 14.75 21.1397 14.671 21.2803 14.5303C21.421 14.3897 21.5 14.1989 21.5 14V8.42C21.4959 8.26883 21.4463 8.12243 21.3575 8ZM14 2H15.1175L18.965 7.25H14V2ZM5.75 15.5C5.45333 15.5 5.16332 15.412 4.91665 15.2472C4.66997 15.0824 4.47771 14.8481 4.36418 14.574C4.25065 14.2999 4.22094 13.9983 4.27882 13.7074C4.3367 13.4164 4.47956 13.1491 4.68934 12.9393C4.89912 12.7296 5.16639 12.5867 5.45736 12.5288C5.74834 12.4709 6.04994 12.5006 6.32403 12.6142C6.59811 12.7277 6.83238 12.92 6.9972 13.1666C7.16203 13.4133 7.25 13.7033 7.25 14C7.25 14.3978 7.09196 14.7794 6.81066 15.0607C6.52936 15.342 6.14782 15.5 5.75 15.5ZM16.25 15.5C15.9533 15.5 15.6633 15.412 15.4166 15.2472C15.17 15.0824 14.9777 14.8481 14.8642 14.574C14.7506 14.2999 14.7209 13.9983 14.7788 13.7074C14.8367 13.4164 14.9796 13.1491 15.1893 12.9393C15.3991 12.7296 15.6664 12.5867 15.9574 12.5288C16.2483 12.4709 16.5499 12.5006 16.824 12.6142C17.0981 12.7277 17.3324 12.92 17.4972 13.1666C17.662 13.4133 17.75 13.7033 17.75 14C17.75 14.3978 17.592 14.7794 17.3107 15.0607C17.0294 15.342 16.6478 15.5 16.25 15.5ZM20 13.25H19.145C18.9723 12.6145 18.5952 12.0534 18.0721 11.6534C17.5489 11.2535 16.9086 11.0367 16.25 11.0367C15.5914 11.0367 14.9511 11.2535 14.4279 11.6534C13.9048 12.0534 13.5277 12.6145 13.355 13.25H8.645C8.47229 12.6145 8.09525 12.0534 7.57205 11.6534C7.04886 11.2535 6.40858 11.0367 5.75 11.0367C5.09142 11.0367 4.45114 11.2535 3.92795 11.6534C3.40475 12.0534 3.02771 12.6145 2.855 13.25H2V2H12.5V8.75H20V13.25Z" fill="#267FCA"/>
</svg>
